<?xml version="1.0" encoding="UTF-8" standalone="no"?>
<!-- Created with Inkscape (http://www.inkscape.org/) -->

<svg
   width="2253.6016"
   height="906.9137"
   viewBox="0 0 596.26541 239.95425"
   version="1.1"
   id="svg1"
   inkscape:version="1.3 (0e150ed, 2023-07-21)"
   sodipodi:docname="taptapsplash2.svg"
   inkscape:export-filename="taptapalt.png"
   inkscape:export-xdpi="96"
   inkscape:export-ydpi="96"
   xmlns:inkscape="http://www.inkscape.org/namespaces/inkscape"
   xmlns:sodipodi="http://sodipodi.sourceforge.net/DTD/sodipodi-0.dtd"
   xmlns="http://www.w3.org/2000/svg"
   xmlns:svg="http://www.w3.org/2000/svg">
  <sodipodi:namedview
     id="namedview1"
     pagecolor="#ffffff"
     bordercolor="#000000"
     borderopacity="0.25"
     inkscape:showpageshadow="2"
     inkscape:pageopacity="0.0"
     inkscape:pagecheckerboard="0"
     inkscape:deskcolor="#d1d1d1"
     inkscape:document-units="mm"
     inkscape:zoom="0.18398054"
     inkscape:cx="1372.4278"
     inkscape:cy="633.21914"
     inkscape:window-width="1280"
     inkscape:window-height="910"
     inkscape:window-x="215"
     inkscape:window-y="104"
     inkscape:window-maximized="0"
     inkscape:current-layer="layer1"
     inkscape:export-bgcolor="#ffffffff" />
  <defs
     id="defs1" />
  <g
     inkscape:label="Layer 1"
     inkscape:groupmode="layer"
     id="layer1"
     transform="translate(135.5726,-18.377121)">
    <path
       id="rect1-3-5-8"
       style="fill:#007aff;fill-opacity:0.3;stroke:none;stroke-width:3.59999;stroke-linecap:round;stroke-linejoin:round;stroke-opacity:1"
       d="m -108.47916,25.150404 a 27.093334,27.093334 0 0 0 -27.09344,27.09344 27.093334,27.093334 0 0 0 27.09344,27.09343 h 270.93333 a 27.093334,27.093334 0 0 0 27.09344,-27.09343 27.093334,27.093334 0 0 0 -27.09344,-27.09344 z" />
    <path
       id="rect1-3-5-8-9"
       style="fill:#007aff;fill-opacity:0.3;stroke:none;stroke-width:3.59999;stroke-linecap:round;stroke-linejoin:round;stroke-opacity:1"
       d="m 162.66605,197.37127 a 27.093334,27.093334 0 0 0 -27.09344,27.09344 27.093334,27.093334 0 0 0 27.09344,27.09343 h 270.93333 a 27.093334,27.093334 0 0 0 27.09344,-27.09343 27.093334,27.093334 0 0 0 -27.09344,-27.09344 z" />
    <path
       id="rect1-3-5"
       style="fill:#007aff;fill-opacity:0.3;stroke:none;stroke-width:3.59999;stroke-linecap:round;stroke-linejoin:round;stroke-opacity:1"
       d="M 27.093437,111.26091 A 27.093334,27.093334 0 0 0 0,138.35435 27.093334,27.093334 0 0 0 27.093437,165.44778 H 298.02677 a 27.093334,27.093334 0 0 0 27.09344,-27.09343 27.093334,27.093334 0 0 0 -27.09344,-27.09344 z" />
    <g
       id="g1">
      <circle
         style="fill:#007aff;fill-opacity:1;stroke:none;stroke-width:3.6;stroke-linecap:round;stroke-linejoin:round;stroke-opacity:1"
         id="path1-6"
         cx="106.11565"
         cy="138.35425"
         r="33.866669" />
      <circle
         style="fill:#007aff;fill-opacity:1;stroke:none;stroke-width:3.6;stroke-linecap:round;stroke-linejoin:round;stroke-opacity:1"
         id="path1-2"
         cx="219.00453"
         cy="138.35425"
         r="33.866669" />
    </g>
    <circle
       style="fill:#007aff;fill-opacity:1;stroke:none;stroke-width:3.6;stroke-linecap:round;stroke-linejoin:round;stroke-opacity:1"
       id="path1-5"
       cx="224.33739"
       cy="224.46471"
       r="33.866669" />
    <circle
       style="fill:#007aff;fill-opacity:1;stroke:none;stroke-width:3.6;stroke-linecap:round;stroke-linejoin:round;stroke-opacity:1"
       id="path1"
       cx="106.33916"
       cy="52.24379"
       r="33.866669" />
  </g>
</svg>
