<?xml version="1.0" encoding="UTF-8" standalone="no"?>
<svg
   viewBox="0 0 64 64"
   version="1.1"
   id="svg1"
   sodipodi:docname="postulate_ellipses.svg"
   inkscape:version="1.3 (0e150ed, 2023-07-21)"
   xmlns:inkscape="http://www.inkscape.org/namespaces/inkscape"
   xmlns:sodipodi="http://sodipodi.sourceforge.net/DTD/sodipodi-0.dtd"
   xmlns="http://www.w3.org/2000/svg"
   xmlns:svg="http://www.w3.org/2000/svg">
  <sodipodi:namedview
     id="namedview1"
     pagecolor="#ffffff"
     bordercolor="#000000"
     borderopacity="0.25"
     inkscape:showpageshadow="2"
     inkscape:pageopacity="0.0"
     inkscape:pagecheckerboard="0"
     inkscape:deskcolor="#d1d1d1"
     inkscape:zoom="3.6875"
     inkscape:cx="31.864407"
     inkscape:cy="31.864407"
     inkscape:window-width="1480"
     inkscape:window-height="816"
     inkscape:window-x="168"
     inkscape:window-y="193"
     inkscape:window-maximized="0"
     inkscape:current-layer="svg1" />
  <defs
     fill="#337ea9"
     id="defs1" />
  <path
     d="m56,32c0,3.31-2.69,6-6,6s-6-2.69-6-6,2.69-6,6-6,6,2.69,6,6Zm-42-6c-3.31,0-6,2.69-6,6s2.69,6,6,6,6-2.69,6-6-2.69-6-6-6Zm18,0c-3.31,0-6,2.69-6,6s2.69,6,6,6,6-2.69,6-6-2.69-6-6-6Z"
     fill="#337ea9"
     id="path1"
     style="fill:#0369a1;fill-opacity:1" />
</svg>
